<mxfile host="app.diagrams.net" modified="2024-04-03T18:26:04.271Z" agent="Mozilla/5.0 (Windows NT 10.0; Win64; x64) AppleWebKit/537.36 (KHTML, like Gecko) Chrome/123.0.0.0 Safari/537.36" version="24.2.0" etag="O0xzzb1mYQDQTTHH0VGj" type="device">
  <diagram id="4cunNhdrQC7LKX4i8vRg" name="PÃ¡gina-1">
    <mxGraphModel dx="1947" dy="529" grid="1" gridSize="10" guides="1" tooltips="1" connect="1" arrows="1" fold="1" page="1" pageScale="1" pageWidth="827" pageHeight="1169" math="0" shadow="0">
      <root>
        <mxCell id="0" />
        <mxCell id="1" parent="0" />
        <mxCell id="mQE8jK9ZUY1IcNjFtf4k-1" value="fabricante" style="whiteSpace=wrap;html=1;align=center;" vertex="1" parent="1">
          <mxGeometry x="660" y="470" width="100" height="40" as="geometry" />
        </mxCell>
        <mxCell id="mQE8jK9ZUY1IcNjFtf4k-35" style="edgeStyle=orthogonalEdgeStyle;rounded=0;orthogonalLoop=1;jettySize=auto;html=1;" edge="1" parent="1" source="mQE8jK9ZUY1IcNjFtf4k-2" target="mQE8jK9ZUY1IcNjFtf4k-7">
          <mxGeometry relative="1" as="geometry" />
        </mxCell>
        <mxCell id="mQE8jK9ZUY1IcNjFtf4k-2" value="produto" style="whiteSpace=wrap;html=1;align=center;" vertex="1" parent="1">
          <mxGeometry x="660" y="210" width="100" height="40" as="geometry" />
        </mxCell>
        <mxCell id="mQE8jK9ZUY1IcNjFtf4k-19" style="edgeStyle=orthogonalEdgeStyle;rounded=0;orthogonalLoop=1;jettySize=auto;html=1;entryX=0;entryY=0.5;entryDx=0;entryDy=0;" edge="1" parent="1" source="mQE8jK9ZUY1IcNjFtf4k-3" target="mQE8jK9ZUY1IcNjFtf4k-6">
          <mxGeometry relative="1" as="geometry" />
        </mxCell>
        <mxCell id="mQE8jK9ZUY1IcNjFtf4k-3" value="compra" style="whiteSpace=wrap;html=1;align=center;" vertex="1" parent="1">
          <mxGeometry x="350" y="210" width="100" height="40" as="geometry" />
        </mxCell>
        <mxCell id="mQE8jK9ZUY1IcNjFtf4k-38" style="edgeStyle=orthogonalEdgeStyle;rounded=0;orthogonalLoop=1;jettySize=auto;html=1;entryX=0;entryY=0.5;entryDx=0;entryDy=0;" edge="1" parent="1" source="mQE8jK9ZUY1IcNjFtf4k-4" target="mQE8jK9ZUY1IcNjFtf4k-5">
          <mxGeometry relative="1" as="geometry" />
        </mxCell>
        <mxCell id="mQE8jK9ZUY1IcNjFtf4k-4" value="clliente" style="whiteSpace=wrap;html=1;align=center;" vertex="1" parent="1">
          <mxGeometry x="30" y="210" width="100" height="40" as="geometry" />
        </mxCell>
        <mxCell id="mQE8jK9ZUY1IcNjFtf4k-20" style="edgeStyle=orthogonalEdgeStyle;rounded=0;orthogonalLoop=1;jettySize=auto;html=1;exitX=1;exitY=0.5;exitDx=0;exitDy=0;entryX=0;entryY=0.5;entryDx=0;entryDy=0;" edge="1" parent="1" source="mQE8jK9ZUY1IcNjFtf4k-5" target="mQE8jK9ZUY1IcNjFtf4k-3">
          <mxGeometry relative="1" as="geometry" />
        </mxCell>
        <mxCell id="mQE8jK9ZUY1IcNjFtf4k-5" value="realiza" style="shape=rhombus;double=1;perimeter=rhombusPerimeter;whiteSpace=wrap;html=1;align=center;" vertex="1" parent="1">
          <mxGeometry x="180" y="200" width="120" height="60" as="geometry" />
        </mxCell>
        <mxCell id="mQE8jK9ZUY1IcNjFtf4k-36" style="edgeStyle=orthogonalEdgeStyle;rounded=0;orthogonalLoop=1;jettySize=auto;html=1;exitX=1;exitY=0.5;exitDx=0;exitDy=0;entryX=0;entryY=0.5;entryDx=0;entryDy=0;" edge="1" parent="1" source="mQE8jK9ZUY1IcNjFtf4k-6" target="mQE8jK9ZUY1IcNjFtf4k-2">
          <mxGeometry relative="1" as="geometry" />
        </mxCell>
        <mxCell id="mQE8jK9ZUY1IcNjFtf4k-6" value="conteudo" style="shape=rhombus;double=1;perimeter=rhombusPerimeter;whiteSpace=wrap;html=1;align=center;" vertex="1" parent="1">
          <mxGeometry x="490" y="200" width="120" height="60" as="geometry" />
        </mxCell>
        <mxCell id="mQE8jK9ZUY1IcNjFtf4k-34" style="edgeStyle=orthogonalEdgeStyle;rounded=0;orthogonalLoop=1;jettySize=auto;html=1;entryX=0.5;entryY=0;entryDx=0;entryDy=0;" edge="1" parent="1" source="mQE8jK9ZUY1IcNjFtf4k-7" target="mQE8jK9ZUY1IcNjFtf4k-1">
          <mxGeometry relative="1" as="geometry" />
        </mxCell>
        <mxCell id="mQE8jK9ZUY1IcNjFtf4k-7" value="fornecedor" style="shape=rhombus;double=1;perimeter=rhombusPerimeter;whiteSpace=wrap;html=1;align=center;" vertex="1" parent="1">
          <mxGeometry x="650" y="330" width="120" height="60" as="geometry" />
        </mxCell>
        <mxCell id="mQE8jK9ZUY1IcNjFtf4k-18" style="edgeStyle=orthogonalEdgeStyle;rounded=0;orthogonalLoop=1;jettySize=auto;html=1;exitX=0.5;exitY=1;exitDx=0;exitDy=0;entryX=0.5;entryY=0;entryDx=0;entryDy=0;" edge="1" parent="1" source="mQE8jK9ZUY1IcNjFtf4k-8" target="mQE8jK9ZUY1IcNjFtf4k-3">
          <mxGeometry relative="1" as="geometry" />
        </mxCell>
        <mxCell id="mQE8jK9ZUY1IcNjFtf4k-8" value="&lt;span style=&quot;border-bottom: 1px dotted&quot;&gt;&lt;u&gt;nota fiscal&lt;/u&gt;&lt;/span&gt;" style="ellipse;whiteSpace=wrap;html=1;align=center;" vertex="1" parent="1">
          <mxGeometry x="350" y="130" width="100" height="40" as="geometry" />
        </mxCell>
        <mxCell id="mQE8jK9ZUY1IcNjFtf4k-17" style="edgeStyle=orthogonalEdgeStyle;rounded=0;orthogonalLoop=1;jettySize=auto;html=1;entryX=0.5;entryY=1;entryDx=0;entryDy=0;" edge="1" parent="1" source="mQE8jK9ZUY1IcNjFtf4k-9" target="mQE8jK9ZUY1IcNjFtf4k-3">
          <mxGeometry relative="1" as="geometry" />
        </mxCell>
        <mxCell id="mQE8jK9ZUY1IcNjFtf4k-9" value="&lt;span style=&quot;border-bottom: 1px dotted&quot;&gt;valor&lt;/span&gt;" style="ellipse;whiteSpace=wrap;html=1;align=center;" vertex="1" parent="1">
          <mxGeometry x="300" y="290" width="100" height="40" as="geometry" />
        </mxCell>
        <mxCell id="mQE8jK9ZUY1IcNjFtf4k-40" style="edgeStyle=orthogonalEdgeStyle;rounded=0;orthogonalLoop=1;jettySize=auto;html=1;entryX=0;entryY=0.25;entryDx=0;entryDy=0;" edge="1" parent="1" source="mQE8jK9ZUY1IcNjFtf4k-10" target="mQE8jK9ZUY1IcNjFtf4k-4">
          <mxGeometry relative="1" as="geometry" />
        </mxCell>
        <mxCell id="mQE8jK9ZUY1IcNjFtf4k-10" value="&lt;span style=&quot;border-bottom: 1px dotted&quot;&gt;endereco&lt;/span&gt;" style="ellipse;whiteSpace=wrap;html=1;align=center;" vertex="1" parent="1">
          <mxGeometry x="-100" y="180" width="100" height="40" as="geometry" />
        </mxCell>
        <mxCell id="mQE8jK9ZUY1IcNjFtf4k-41" style="edgeStyle=orthogonalEdgeStyle;rounded=0;orthogonalLoop=1;jettySize=auto;html=1;entryX=0.5;entryY=1;entryDx=0;entryDy=0;" edge="1" parent="1" source="mQE8jK9ZUY1IcNjFtf4k-11" target="mQE8jK9ZUY1IcNjFtf4k-4">
          <mxGeometry relative="1" as="geometry" />
        </mxCell>
        <mxCell id="mQE8jK9ZUY1IcNjFtf4k-11" value="&lt;span style=&quot;border-bottom: 1px dotted&quot;&gt;nome&lt;/span&gt;" style="ellipse;whiteSpace=wrap;html=1;align=center;" vertex="1" parent="1">
          <mxGeometry x="30" y="290" width="100" height="40" as="geometry" />
        </mxCell>
        <mxCell id="mQE8jK9ZUY1IcNjFtf4k-39" style="edgeStyle=orthogonalEdgeStyle;rounded=0;orthogonalLoop=1;jettySize=auto;html=1;" edge="1" parent="1" source="mQE8jK9ZUY1IcNjFtf4k-12" target="mQE8jK9ZUY1IcNjFtf4k-4">
          <mxGeometry relative="1" as="geometry" />
        </mxCell>
        <mxCell id="mQE8jK9ZUY1IcNjFtf4k-12" value="&lt;span style=&quot;border-bottom: 1px dotted&quot;&gt;&lt;u&gt;cpf&lt;/u&gt;&lt;/span&gt;" style="ellipse;whiteSpace=wrap;html=1;align=center;" vertex="1" parent="1">
          <mxGeometry x="30" y="140" width="100" height="40" as="geometry" />
        </mxCell>
        <mxCell id="mQE8jK9ZUY1IcNjFtf4k-42" style="edgeStyle=orthogonalEdgeStyle;rounded=0;orthogonalLoop=1;jettySize=auto;html=1;entryX=0;entryY=1;entryDx=0;entryDy=0;" edge="1" parent="1" source="mQE8jK9ZUY1IcNjFtf4k-14" target="mQE8jK9ZUY1IcNjFtf4k-4">
          <mxGeometry relative="1" as="geometry" />
        </mxCell>
        <mxCell id="mQE8jK9ZUY1IcNjFtf4k-14" value="telefone" style="ellipse;shape=doubleEllipse;margin=3;whiteSpace=wrap;html=1;align=center;" vertex="1" parent="1">
          <mxGeometry x="-100" y="260" width="100" height="40" as="geometry" />
        </mxCell>
        <mxCell id="mQE8jK9ZUY1IcNjFtf4k-16" style="edgeStyle=orthogonalEdgeStyle;rounded=0;orthogonalLoop=1;jettySize=auto;html=1;entryX=0.5;entryY=1;entryDx=0;entryDy=0;" edge="1" parent="1" source="mQE8jK9ZUY1IcNjFtf4k-15" target="mQE8jK9ZUY1IcNjFtf4k-3">
          <mxGeometry relative="1" as="geometry" />
        </mxCell>
        <mxCell id="mQE8jK9ZUY1IcNjFtf4k-15" value="peso" style="ellipse;whiteSpace=wrap;html=1;align=center;" vertex="1" parent="1">
          <mxGeometry x="400" y="290" width="100" height="40" as="geometry" />
        </mxCell>
        <mxCell id="mQE8jK9ZUY1IcNjFtf4k-28" style="edgeStyle=orthogonalEdgeStyle;rounded=0;orthogonalLoop=1;jettySize=auto;html=1;entryX=0;entryY=1;entryDx=0;entryDy=0;" edge="1" parent="1" source="mQE8jK9ZUY1IcNjFtf4k-21" target="mQE8jK9ZUY1IcNjFtf4k-1">
          <mxGeometry relative="1" as="geometry">
            <Array as="points">
              <mxPoint x="660" y="565" />
            </Array>
          </mxGeometry>
        </mxCell>
        <mxCell id="mQE8jK9ZUY1IcNjFtf4k-21" value="nome" style="ellipse;whiteSpace=wrap;html=1;align=center;" vertex="1" parent="1">
          <mxGeometry x="540" y="545" width="100" height="40" as="geometry" />
        </mxCell>
        <mxCell id="mQE8jK9ZUY1IcNjFtf4k-22" value="quantidade" style="ellipse;whiteSpace=wrap;html=1;align=center;" vertex="1" parent="1">
          <mxGeometry x="780" y="210" width="100" height="40" as="geometry" />
        </mxCell>
        <mxCell id="mQE8jK9ZUY1IcNjFtf4k-27" style="edgeStyle=orthogonalEdgeStyle;rounded=0;orthogonalLoop=1;jettySize=auto;html=1;entryX=0;entryY=0.5;entryDx=0;entryDy=0;" edge="1" parent="1" source="mQE8jK9ZUY1IcNjFtf4k-23" target="mQE8jK9ZUY1IcNjFtf4k-1">
          <mxGeometry relative="1" as="geometry" />
        </mxCell>
        <mxCell id="mQE8jK9ZUY1IcNjFtf4k-23" value="codigo" style="ellipse;whiteSpace=wrap;html=1;align=center;" vertex="1" parent="1">
          <mxGeometry x="510" y="470" width="100" height="40" as="geometry" />
        </mxCell>
        <mxCell id="mQE8jK9ZUY1IcNjFtf4k-24" value="nome" style="ellipse;whiteSpace=wrap;html=1;align=center;" vertex="1" parent="1">
          <mxGeometry x="740" y="150" width="100" height="40" as="geometry" />
        </mxCell>
        <mxCell id="mQE8jK9ZUY1IcNjFtf4k-25" value="&lt;u&gt;codigo&lt;/u&gt;" style="ellipse;whiteSpace=wrap;html=1;align=center;" vertex="1" parent="1">
          <mxGeometry x="660" y="110" width="100" height="40" as="geometry" />
        </mxCell>
        <mxCell id="mQE8jK9ZUY1IcNjFtf4k-29" style="edgeStyle=orthogonalEdgeStyle;rounded=0;orthogonalLoop=1;jettySize=auto;html=1;entryX=0.5;entryY=1;entryDx=0;entryDy=0;" edge="1" parent="1" source="mQE8jK9ZUY1IcNjFtf4k-26" target="mQE8jK9ZUY1IcNjFtf4k-1">
          <mxGeometry relative="1" as="geometry" />
        </mxCell>
        <mxCell id="mQE8jK9ZUY1IcNjFtf4k-26" value="cnpj" style="ellipse;whiteSpace=wrap;html=1;align=center;" vertex="1" parent="1">
          <mxGeometry x="660" y="565" width="100" height="40" as="geometry" />
        </mxCell>
        <mxCell id="mQE8jK9ZUY1IcNjFtf4k-33" style="edgeStyle=orthogonalEdgeStyle;rounded=0;orthogonalLoop=1;jettySize=auto;html=1;" edge="1" parent="1" source="mQE8jK9ZUY1IcNjFtf4k-32" target="mQE8jK9ZUY1IcNjFtf4k-1">
          <mxGeometry relative="1" as="geometry" />
        </mxCell>
        <mxCell id="mQE8jK9ZUY1IcNjFtf4k-32" value="telefone" style="ellipse;shape=doubleEllipse;margin=3;whiteSpace=wrap;html=1;align=center;" vertex="1" parent="1">
          <mxGeometry x="800" y="470" width="100" height="40" as="geometry" />
        </mxCell>
      </root>
    </mxGraphModel>
  </diagram>
</mxfile>
